<svg xmlns="http://www.w3.org/2000/svg" xmlns:xlink="http://www.w3.org/1999/xlink" width="800" zoomAndPan="magnify" viewBox="0 0 600 299.999988" height="400" preserveAspectRatio="xMidYMid meet" version="1.0"><defs><g/></defs><g fill="#ffffff" fill-opacity="1"><g transform="translate(14.686534, 200.272328)"><g><path d="M 78.75 2.359375 C 64.3125 2.359375 51.546875 -0.691406 40.453125 -6.796875 C 29.359375 -12.898438 20.660156 -21.296875 14.359375 -31.984375 C 8.066406 -42.679688 4.921875 -54.921875 4.921875 -68.703125 C 4.921875 -82.617188 8.066406 -94.921875 14.359375 -105.609375 C 20.660156 -116.304688 29.320312 -124.707031 40.34375 -130.8125 C 51.375 -136.914062 64.039062 -139.96875 78.34375 -139.96875 C 92.78125 -139.96875 105.507812 -136.914062 116.53125 -130.8125 C 127.5625 -124.707031 136.222656 -116.304688 142.515625 -105.609375 C 148.816406 -94.921875 151.96875 -82.617188 151.96875 -68.703125 C 151.96875 -54.921875 148.851562 -42.679688 142.625 -31.984375 C 136.394531 -21.296875 127.765625 -12.898438 116.734375 -6.796875 C 105.710938 -0.691406 93.050781 2.359375 78.75 2.359375 Z M 78.75 -31.109375 C 85.832031 -31.109375 92.0625 -32.710938 97.4375 -35.921875 C 102.820312 -39.140625 107.023438 -43.570312 110.046875 -49.21875 C 113.066406 -54.863281 114.578125 -61.359375 114.578125 -68.703125 C 114.578125 -76.054688 113.03125 -82.585938 109.9375 -88.296875 C 106.851562 -94.003906 102.585938 -98.460938 97.140625 -101.671875 C 91.703125 -104.890625 85.4375 -106.5 78.34375 -106.5 C 71.394531 -106.5 65.195312 -104.890625 59.75 -101.671875 C 54.300781 -98.460938 50.035156 -94.003906 46.953125 -88.296875 C 43.867188 -82.585938 42.328125 -76.054688 42.328125 -68.703125 C 42.328125 -61.359375 43.898438 -54.863281 47.046875 -49.21875 C 50.203125 -43.570312 54.5 -39.140625 59.9375 -35.921875 C 65.382812 -32.710938 71.65625 -31.109375 78.75 -31.109375 Z M 78.75 -31.109375 "/></g></g></g><g fill="#ffffff" fill-opacity="1"><g transform="translate(171.577717, 200.272328)"><g><path d="M 9.84375 39.375 L 9.84375 -98.421875 L 43.3125 -98.421875 L 45.28125 -80.3125 L 45.28125 39.375 Z M 71.65625 2.359375 C 63.519531 2.359375 56.789062 0.328125 51.46875 -3.734375 C 46.15625 -7.804688 42.21875 -13.710938 39.65625 -21.453125 C 37.101562 -29.203125 35.828125 -38.457031 35.828125 -49.21875 C 35.828125 -60.101562 37.101562 -69.382812 39.65625 -77.0625 C 42.21875 -84.75 46.15625 -90.625 51.46875 -94.6875 C 56.789062 -98.757812 63.519531 -100.796875 71.65625 -100.796875 C 80.976562 -100.796875 88.953125 -98.757812 95.578125 -94.6875 C 102.203125 -90.625 107.285156 -84.75 110.828125 -77.0625 C 114.367188 -69.382812 116.140625 -60.101562 116.140625 -49.21875 C 116.140625 -38.457031 114.367188 -29.203125 110.828125 -21.453125 C 107.285156 -13.710938 102.203125 -7.804688 95.578125 -3.734375 C 88.953125 0.328125 80.976562 2.359375 71.65625 2.359375 Z M 62.203125 -30.3125 C 65.484375 -30.3125 68.367188 -31.128906 70.859375 -32.765625 C 73.359375 -34.410156 75.363281 -36.644531 76.875 -39.46875 C 78.382812 -42.289062 79.140625 -45.539062 79.140625 -49.21875 C 79.140625 -52.894531 78.414062 -56.140625 76.96875 -58.953125 C 75.53125 -61.773438 73.5625 -63.972656 71.0625 -65.546875 C 68.570312 -67.128906 65.6875 -67.921875 62.40625 -67.921875 C 59.125 -67.921875 56.171875 -67.128906 53.546875 -65.546875 C 50.921875 -63.972656 48.882812 -61.773438 47.4375 -58.953125 C 46 -56.140625 45.28125 -52.894531 45.28125 -49.21875 C 45.28125 -45.539062 46 -42.289062 47.4375 -39.46875 C 48.882812 -36.644531 50.882812 -34.410156 53.4375 -32.765625 C 56 -31.128906 58.921875 -30.3125 62.203125 -30.3125 Z M 62.203125 -30.3125 "/></g></g></g><g fill="#5170ff" fill-opacity="1"><g transform="translate(291.659172, 200.272328)"><g><path d="M 11.8125 0 L 11.8125 -137.796875 L 106.109375 -137.796875 L 106.109375 -104.328125 L 48.234375 -104.328125 L 48.234375 -84.25 L 93.515625 -84.25 L 93.515625 -50.796875 L 48.234375 -50.796875 L 48.234375 0 Z M 11.8125 0 "/></g></g></g><g fill="#5170ff" fill-opacity="1"><g transform="translate(402.683767, 200.272328)"><g><path d="M 10.828125 0 L 10.828125 -98.421875 L 46.265625 -98.421875 L 46.265625 0 Z M 28.546875 -107.875 C 23.296875 -107.875 18.703125 -109.84375 14.765625 -113.78125 C 10.828125 -117.71875 8.859375 -122.3125 8.859375 -127.5625 C 8.859375 -132.945312 10.828125 -137.570312 14.765625 -141.4375 C 18.703125 -145.3125 23.296875 -147.25 28.546875 -147.25 C 33.921875 -147.25 38.546875 -145.3125 42.421875 -141.4375 C 46.296875 -137.570312 48.234375 -132.945312 48.234375 -127.5625 C 48.234375 -122.3125 46.296875 -117.71875 42.421875 -113.78125 C 38.546875 -109.84375 33.921875 -107.875 28.546875 -107.875 Z M 28.546875 -107.875 "/></g></g></g><g fill="#5170ff" fill-opacity="1"><g transform="translate(459.770886, 200.272328)"><g><path d="M 1.96875 0 L 42.515625 -55.90625 L 70.46875 -98.421875 L 112.203125 -98.421875 L 71.453125 -41.9375 L 44.09375 0 Z M 72.640625 0 L 45.671875 -41.9375 L 4.53125 -98.421875 L 46.265625 -98.421875 L 74.21875 -55.90625 L 114.578125 0 Z M 72.640625 0 "/></g></g></g><g fill="#737373" fill-opacity="1"><g transform="translate(235.155417, 233.732031)"><g><path d="M 17.75 0 L 23.65625 -19.140625 L 25.984375 -19.140625 L 20.046875 0 Z M 6.09375 0 L 0.25 -19.140625 L 2.578125 -19.140625 L 8.375 0 Z M 6.34375 0 L 11.984375 -19.140625 L 14.1875 -19.140625 L 8.5625 0 Z M 17.5625 0 L 12.0625 -19.140625 L 14.28125 -19.140625 L 19.859375 0 Z M 17.5625 0 "/></g></g></g><g fill="#737373" fill-opacity="1"><g transform="translate(264.206494, 233.732031)"><g><path d="M 2.546875 0 L 2.546875 -19.140625 L 13.859375 -19.140625 L 13.859375 -17.03125 L 4.875 -17.03125 L 4.875 -10.859375 L 13.078125 -10.859375 L 13.078125 -8.78125 L 4.875 -8.78125 L 4.875 -2.109375 L 13.921875 -2.109375 L 13.921875 0 Z M 2.546875 0 "/></g></g></g><g fill="#737373" fill-opacity="1"><g transform="translate(283.200823, 233.732031)"><g/></g></g><g fill="#737373" fill-opacity="1"><g transform="translate(292.766939, 233.732031)"><g><path d="M 2.546875 0 L 2.546875 -19.140625 L 13.921875 -19.140625 L 13.921875 -17.03125 L 4.875 -17.03125 L 4.875 -10.5 L 12.859375 -10.5 L 12.859375 -8.390625 L 4.875 -8.390625 L 4.875 0 Z M 2.546875 0 "/></g></g></g><g fill="#737373" fill-opacity="1"><g transform="translate(310.422184, 233.732031)"><g><path d="M 2.546875 0 L 2.546875 -19.140625 L 4.875 -19.140625 L 4.875 0 Z M 2.546875 0 "/></g></g></g><g fill="#737373" fill-opacity="1"><g transform="translate(320.644183, 233.732031)"><g><path d="M 0.28125 0 L 7.65625 -10.5 L 13.734375 -19.140625 L 16.484375 -19.140625 L 9.21875 -9.078125 L 3.0625 0 Z M 13.734375 0 L 7.578125 -9.078125 L 0.296875 -19.140625 L 3.0625 -19.140625 L 9.140625 -10.53125 L 16.515625 0 Z M 13.734375 0 "/></g></g></g><g fill="#737373" fill-opacity="1"><g transform="translate(340.239729, 233.732031)"><g/></g></g><g fill="#737373" fill-opacity="1"><g transform="translate(349.805844, 233.732031)"><g><path d="M 10.6875 0.328125 C 8.851562 0.328125 7.222656 -0.0859375 5.796875 -0.921875 C 4.378906 -1.765625 3.269531 -2.929688 2.46875 -4.421875 C 1.664062 -5.921875 1.265625 -7.640625 1.265625 -9.578125 C 1.265625 -11.523438 1.660156 -13.238281 2.453125 -14.71875 C 3.242188 -16.207031 4.335938 -17.367188 5.734375 -18.203125 C 7.140625 -19.046875 8.765625 -19.46875 10.609375 -19.46875 C 12.453125 -19.46875 14.078125 -19.039062 15.484375 -18.1875 C 16.898438 -17.34375 18 -16.175781 18.78125 -14.6875 C 19.570312 -13.207031 19.96875 -11.503906 19.96875 -9.578125 C 19.96875 -7.640625 19.570312 -5.921875 18.78125 -4.421875 C 18 -2.929688 16.910156 -1.765625 15.515625 -0.921875 C 14.117188 -0.0859375 12.507812 0.328125 10.6875 0.328125 Z M 10.6875 -1.78125 C 12.0625 -1.78125 13.265625 -2.113281 14.296875 -2.78125 C 15.335938 -3.445312 16.15625 -4.363281 16.75 -5.53125 C 17.34375 -6.695312 17.640625 -8.046875 17.640625 -9.578125 C 17.640625 -11.085938 17.335938 -12.429688 16.734375 -13.609375 C 16.128906 -14.785156 15.300781 -15.703125 14.25 -16.359375 C 13.207031 -17.023438 11.992188 -17.359375 10.609375 -17.359375 C 9.242188 -17.359375 8.03125 -17.023438 6.96875 -16.359375 C 5.914062 -15.703125 5.085938 -14.785156 4.484375 -13.609375 C 3.878906 -12.429688 3.578125 -11.085938 3.578125 -9.578125 C 3.578125 -8.046875 3.878906 -6.695312 4.484375 -5.53125 C 5.085938 -4.363281 5.925781 -3.445312 7 -2.78125 C 8.070312 -2.113281 9.300781 -1.78125 10.6875 -1.78125 Z M 10.6875 -1.78125 "/></g></g></g><g fill="#737373" fill-opacity="1"><g transform="translate(373.828547, 233.732031)"><g><path d="M 2.546875 0 L 2.546875 -19.140625 L 8.78125 -19.140625 C 10.019531 -19.140625 11.117188 -18.882812 12.078125 -18.375 C 13.035156 -17.863281 13.78125 -17.148438 14.3125 -16.234375 C 14.851562 -15.328125 15.125 -14.273438 15.125 -13.078125 C 15.125 -11.910156 14.875 -10.867188 14.375 -9.953125 C 13.882812 -9.046875 13.210938 -8.332031 12.359375 -7.8125 C 11.503906 -7.289062 10.507812 -7.03125 9.375 -7.03125 L 4.875 -7.03125 L 4.875 0 Z M 4.875 -9.140625 L 9.375 -9.140625 C 10.382812 -9.140625 11.210938 -9.503906 11.859375 -10.234375 C 12.503906 -10.972656 12.828125 -11.921875 12.828125 -13.078125 C 12.828125 -14.253906 12.441406 -15.207031 11.671875 -15.9375 C 10.910156 -16.664062 9.9375 -17.03125 8.75 -17.03125 L 4.875 -17.03125 Z M 4.875 -9.140625 "/></g></g></g><g fill="#737373" fill-opacity="1"><g transform="translate(392.467606, 233.732031)"><g><path d="M 2.546875 0 L 2.546875 -19.140625 L 13.859375 -19.140625 L 13.859375 -17.03125 L 4.875 -17.03125 L 4.875 -10.859375 L 13.078125 -10.859375 L 13.078125 -8.78125 L 4.875 -8.78125 L 4.875 -2.109375 L 13.921875 -2.109375 L 13.921875 0 Z M 2.546875 0 "/></g></g></g><g fill="#737373" fill-opacity="1"><g transform="translate(411.461936, 233.732031)"><g><path d="M 2.546875 0 L 2.546875 -19.140625 L 8.78125 -19.140625 C 10.019531 -19.140625 11.117188 -18.894531 12.078125 -18.40625 C 13.035156 -17.914062 13.78125 -17.234375 14.3125 -16.359375 C 14.851562 -15.484375 15.125 -14.476562 15.125 -13.34375 C 15.125 -12.21875 14.832031 -11.21875 14.25 -10.34375 C 13.664062 -9.46875 12.867188 -8.773438 11.859375 -8.265625 C 10.859375 -7.765625 9.734375 -7.515625 8.484375 -7.515625 L 4.875 -7.515625 L 4.875 0 Z M 13.34375 0 L 8.75 -7.84375 L 10.578125 -9.046875 L 15.890625 0 Z M 4.875 -9.65625 L 9.109375 -9.65625 C 9.796875 -9.65625 10.410156 -9.8125 10.953125 -10.125 C 11.503906 -10.445312 11.945312 -10.882812 12.28125 -11.4375 C 12.625 -12 12.796875 -12.632812 12.796875 -13.34375 C 12.796875 -14.4375 12.414062 -15.320312 11.65625 -16 C 10.90625 -16.6875 9.925781 -17.03125 8.71875 -17.03125 L 4.875 -17.03125 Z M 4.875 -9.65625 "/></g></g></g><g fill="#737373" fill-opacity="1"><g transform="translate(431.440092, 233.732031)"><g><path d="M 15.8125 0 L 8.125 -19.140625 L 10.453125 -19.140625 L 18.234375 0 Z M 0.25 0 L 8.046875 -19.140625 L 10.390625 -19.140625 L 2.703125 0 Z M 3.9375 -5.4375 L 3.9375 -7.515625 L 14.578125 -7.515625 L 14.578125 -5.4375 Z M 3.9375 -5.4375 "/></g></g></g><g fill="#737373" fill-opacity="1"><g transform="translate(452.401935, 233.732031)"><g><path d="M 6.40625 0 L 6.40625 -17.03125 L 0.296875 -17.03125 L 0.296875 -19.140625 L 14.796875 -19.140625 L 14.796875 -17.03125 L 8.703125 -17.03125 L 8.703125 0 Z M 6.40625 0 "/></g></g></g><g fill="#737373" fill-opacity="1"><g transform="translate(470.303126, 233.732031)"><g><path d="M 2.546875 0 L 2.546875 -19.140625 L 4.875 -19.140625 L 4.875 0 Z M 2.546875 0 "/></g></g></g><g fill="#737373" fill-opacity="1"><g transform="translate(480.525125, 233.732031)"><g><path d="M 10.6875 0.328125 C 8.851562 0.328125 7.222656 -0.0859375 5.796875 -0.921875 C 4.378906 -1.765625 3.269531 -2.929688 2.46875 -4.421875 C 1.664062 -5.921875 1.265625 -7.640625 1.265625 -9.578125 C 1.265625 -11.523438 1.660156 -13.238281 2.453125 -14.71875 C 3.242188 -16.207031 4.335938 -17.367188 5.734375 -18.203125 C 7.140625 -19.046875 8.765625 -19.46875 10.609375 -19.46875 C 12.453125 -19.46875 14.078125 -19.039062 15.484375 -18.1875 C 16.898438 -17.34375 18 -16.175781 18.78125 -14.6875 C 19.570312 -13.207031 19.96875 -11.503906 19.96875 -9.578125 C 19.96875 -7.640625 19.570312 -5.921875 18.78125 -4.421875 C 18 -2.929688 16.910156 -1.765625 15.515625 -0.921875 C 14.117188 -0.0859375 12.507812 0.328125 10.6875 0.328125 Z M 10.6875 -1.78125 C 12.0625 -1.78125 13.265625 -2.113281 14.296875 -2.78125 C 15.335938 -3.445312 16.15625 -4.363281 16.75 -5.53125 C 17.34375 -6.695312 17.640625 -8.046875 17.640625 -9.578125 C 17.640625 -11.085938 17.335938 -12.429688 16.734375 -13.609375 C 16.128906 -14.785156 15.300781 -15.703125 14.25 -16.359375 C 13.207031 -17.023438 11.992188 -17.359375 10.609375 -17.359375 C 9.242188 -17.359375 8.03125 -17.023438 6.96875 -16.359375 C 5.914062 -15.703125 5.085938 -14.785156 4.484375 -13.609375 C 3.878906 -12.429688 3.578125 -11.085938 3.578125 -9.578125 C 3.578125 -8.046875 3.878906 -6.695312 4.484375 -5.53125 C 5.085938 -4.363281 5.925781 -3.445312 7 -2.78125 C 8.070312 -2.113281 9.300781 -1.78125 10.6875 -1.78125 Z M 10.6875 -1.78125 "/></g></g></g><g fill="#737373" fill-opacity="1"><g transform="translate(504.547828, 233.732031)"><g><path d="M 2.546875 0 L 2.546875 -19.140625 L 4.890625 -19.140625 L 16.296875 -3.78125 L 16.296875 -19.140625 L 18.625 -19.140625 L 18.625 0 L 16.296875 0 L 4.875 -15.453125 L 4.875 0 Z M 2.546875 0 "/></g></g></g><g fill="#737373" fill-opacity="1"><g transform="translate(528.515874, 233.732031)"><g><path d="M 8.671875 0.328125 C 7.609375 0.328125 6.664062 0.210938 5.84375 -0.015625 C 5.03125 -0.242188 4.320312 -0.5625 3.71875 -0.96875 C 3.113281 -1.382812 2.617188 -1.84375 2.234375 -2.34375 C 1.859375 -2.84375 1.578125 -3.375 1.390625 -3.9375 L 3.609375 -4.703125 C 3.878906 -3.898438 4.429688 -3.203125 5.265625 -2.609375 C 6.097656 -2.015625 7.113281 -1.71875 8.3125 -1.71875 C 9.789062 -1.71875 10.945312 -2.007812 11.78125 -2.59375 C 12.625 -3.175781 13.046875 -3.953125 13.046875 -4.921875 C 13.046875 -5.816406 12.671875 -6.539062 11.921875 -7.09375 C 11.171875 -7.65625 10.1875 -8.085938 8.96875 -8.390625 L 6.859375 -8.9375 C 6.003906 -9.15625 5.21875 -9.476562 4.5 -9.90625 C 3.78125 -10.34375 3.207031 -10.890625 2.78125 -11.546875 C 2.351562 -12.210938 2.140625 -13.015625 2.140625 -13.953125 C 2.140625 -15.679688 2.695312 -17.03125 3.8125 -18 C 4.9375 -18.976562 6.554688 -19.46875 8.671875 -19.46875 C 9.929688 -19.46875 11.015625 -19.257812 11.921875 -18.84375 C 12.835938 -18.4375 13.582031 -17.921875 14.15625 -17.296875 C 14.726562 -16.671875 15.132812 -15.992188 15.375 -15.265625 L 13.1875 -14.5 C 12.832031 -15.40625 12.242188 -16.117188 11.421875 -16.640625 C 10.609375 -17.160156 9.617188 -17.421875 8.453125 -17.421875 C 7.234375 -17.421875 6.257812 -17.125 5.53125 -16.53125 C 4.8125 -15.9375 4.453125 -15.128906 4.453125 -14.109375 C 4.453125 -13.234375 4.734375 -12.5625 5.296875 -12.09375 C 5.867188 -11.632812 6.609375 -11.296875 7.515625 -11.078125 L 9.625 -10.5625 C 11.488281 -10.125 12.914062 -9.394531 13.90625 -8.375 C 14.894531 -7.363281 15.390625 -6.273438 15.390625 -5.109375 C 15.390625 -4.109375 15.132812 -3.191406 14.625 -2.359375 C 14.113281 -1.535156 13.363281 -0.878906 12.375 -0.390625 C 11.382812 0.0859375 10.148438 0.328125 8.671875 0.328125 Z M 8.671875 0.328125 "/></g></g></g></svg>